<?xml version="1.0" standalone="no"?>
<!DOCTYPE svg PUBLIC "-//W3C//DTD SVG 20010904//EN"
 "http://www.w3.org/TR/2001/REC-SVG-20010904/DTD/svg10.dtd">
<svg version="1.0" xmlns="http://www.w3.org/2000/svg"
 width="1200.000000pt" height="1200.000000pt" viewBox="0 0 1200.000000 1200.000000"
 preserveAspectRatio="xMidYMid meet">
<metadata>
Created by potrace 1.11, written by Peter Selinger 2001-2013
</metadata>
<g transform="translate(0.000000,1200.000000) scale(0.100000,-0.100000)"
fill="#000000" stroke="none">
<path d="M0 6000 l0 -6000 6000 0 6000 0 0 6000 0 6000 -6000 0 -6000 0 0
-6000z m6390 4779 c348 -31 715 -150 967 -315 434 -282 698 -705 800 -1284 21
-122 26 -186 30 -398 6 -268 -4 -423 -38 -617 -54 -315 -155 -579 -310 -811
-82 -123 -276 -325 -394 -412 -214 -157 -496 -286 -792 -363 -89 -23 -93 -25
-98 -54 -2 -16 -16 -181 -30 -365 -14 -184 -28 -345 -31 -357 l-4 -23 -660 0
c-521 0 -660 3 -660 13 0 6 -18 371 -40 811 -23 439 -40 800 -38 801 2 1 77 8
168 14 923 64 1357 368 1455 1018 22 145 22 431 0 578 -33 218 -102 374 -219
491 -132 132 -272 179 -506 171 -136 -5 -192 -17 -281 -62 -220 -112 -340
-376 -379 -834 -6 -69 -12 -126 -14 -128 -6 -6 -1321 88 -1328 95 -10 10 8
254 28 392 106 732 490 1256 1089 1487 373 145 800 195 1285 152z m150 -6179
l0 -640 -735 0 -735 0 0 640 0 640 735 0 735 0 0 -640z m4295 -665 c432 -51
537 -148 496 -461 -60 -453 -241 -901 -509 -1256 -174 -231 -255 -288 -342
-243 -31 16 -50 43 -50 71 0 10 27 83 61 163 135 322 274 803 286 986 7 111
-6 163 -54 216 -48 53 -102 68 -308 80 -271 17 -639 -3 -928 -51 -126 -21
-142 -19 -171 22 -37 52 -9 125 69 178 65 44 269 140 390 183 159 55 370 101
555 120 98 10 389 5 505 -8z m-9847 -301 c1295 -707 2774 -1140 4303 -1259
713 -55 1533 -31 2239 66 813 112 1568 309 2337 610 212 83 303 104 380 90
113 -22 162 -116 112 -218 -30 -63 -110 -129 -281 -235 -940 -581 -2001 -958
-3098 -1102 -406 -53 -523 -60 -1020 -61 -460 0 -540 4 -870 41 -1516 169
-3007 807 -4185 1790 -190 158 -225 200 -225 267 0 64 40 116 89 117 13 0 112
-48 219 -106z"/>
</g>
</svg>
